<svg width="24" height="24" viewBox="0 0 24 24" fill="none" xmlns="http://www.w3.org/2000/svg">
<path d="M4.875 3C3.97989 3 3.12145 3.35558 2.48851 3.98851C1.85558 4.62145 1.5 5.47989 1.5 6.375V17.625C1.5 18.5201 1.85558 19.3785 2.48851 20.0115C3.12145 20.6444 3.97989 21 4.875 21H19.125C20.0201 21 20.8785 20.6444 21.5115 20.0115C22.1444 19.3785 22.5 18.5201 22.5 17.625V6.375C22.5 5.47989 22.1444 4.62145 21.5115 3.98851C20.8785 3.35558 20.0201 3 19.125 3H4.875ZM9 9.00075C9.00009 8.87132 9.03367 8.74412 9.09747 8.63151C9.16128 8.5189 9.25314 8.42472 9.36413 8.35813C9.47511 8.29154 9.60144 8.2548 9.73083 8.25149C9.86022 8.24819 9.98826 8.27842 10.1025 8.33925L15.726 11.3385C15.8458 11.4025 15.946 11.4979 16.0158 11.6144C16.0857 11.7309 16.1226 11.8642 16.1226 12C16.1226 12.1358 16.0857 12.2691 16.0158 12.3856C15.946 12.5021 15.8458 12.5975 15.726 12.6615L10.1032 15.6608C9.98898 15.7218 9.86086 15.7521 9.73137 15.7489C9.60187 15.7457 9.47542 15.709 9.36432 15.6424C9.25323 15.5758 9.16128 15.4815 9.09743 15.3688C9.03358 15.2561 9.00002 15.1288 9 14.9993V9.00075Z" fill="currentColor"/>
</svg>
